<?xml version="1.0" encoding="utf-8"?>
<!-- Generator: Adobe Illustrator 17.0.0, SVG Export Plug-In . SVG Version: 6.00 Build 0)  -->
<!DOCTYPE svg PUBLIC "-//W3C//DTD SVG 1.1//EN" "http://www.w3.org/Graphics/SVG/1.1/DTD/svg11.dtd">
<svg version="1.1" id="图层_1" xmlns="http://www.w3.org/2000/svg" xmlns:xlink="http://www.w3.org/1999/xlink" x="0px" y="0px"
	 width="40px" height="40px" viewBox="0 0 40 40" enable-background="new 0 0 40 40" xml:space="preserve">
<rect fill-rule="evenodd" clip-rule="evenodd" fill="#FFFFFF" width="40" height="40"/>
<g>
	<circle fill-rule="evenodd" clip-rule="evenodd" fill="#9ca3be" cx="20" cy="20" r="19.488"/>
	<g>
		<path fill="#FFFFFF" d="M19.9,21.302c-0.535,0-0.969-0.433-0.969-0.969V7.659c0-0.536,0.434-0.969,0.969-0.969
			s0.969,0.433,0.969,0.969v12.674C20.869,20.869,20.435,21.302,19.9,21.302z"/>
		<path fill="#FFFFFF" d="M32.574,21.302H19.9c-0.535,0-0.969-0.433-0.969-0.969c0-0.536,0.434-0.969,0.969-0.969h12.675
			c0.535,0,0.969,0.433,0.969,0.969C33.544,20.869,33.11,21.302,32.574,21.302z"/>
	</g>
</g>
</svg>
